# xmcd
# Track frame offsets:
# 150
# 11912
# 31477
# 43162
# 57032
# 72590
# 89782
# 102595
# 116930
# 128917
# 139557
#
# Disc length: 2051 seconds
# Revision: 0
# Processed by: cddbd v1.4PL0 Copyright (c) Steve Scherf et al.
# Submitted via: VisiTrax 2.9.5.180 - For more info visit www.synapsa.com
#
DISCID=a908010b
DTITLE=Ray Price - Greatest Hits Vol.IV-By Request
DYEAR=1989
DGENRE=
TTITLE0=I´Ve Got A New Heartache
TTITLE1=Spanish Eyes
TTITLE2=Invitation To The Blues
TTITLE3=This Cold War With You
TTITLE4=April´s Fool
TTITLE5=She´s Got TO Be A Saint
TTITLE6=Twenty-Fourth Hour
TTITLE7=Heart Over Mind
TTITLE8=Pride
TTITLE9=I´ve Just Destreoyed The World I´m Living In
TTITLE10=Somewhere In Texas
EXTD=
EXTT0=
EXTT1=
EXTT2=
EXTT3=
EXTT4=
EXTT5=
EXTT6=
EXTT7=
EXTT8=
EXTT9=
EXTT10=
PLAYORDER=
